# xmcd CD database file generated by OrangeCD 5.2
#
# Track frame offsets:
#	151
#	14018
#	30127
#	47183
#	63418
#	77951
#	96611
#	109383
#	126996
#	140869
#	157978
#	173593
#	188981
#	201720
#	217645
#	234384
#	253777
#	271748
#	286768
#	303270
#
# Disc length: 4246 seconds
#
# Revision: 1
# Processed by: cddbd v1.5.1PL0 Copyright (c) Steve Scherf et al.
# Submitted via: OrangeCD 5.2
#
DISCID=24109414
DTITLE=Sean Kenny and The Nadine Somers Band - Line Dance Crazy 3 [CD2]
DYEAR=2000
DGENRE=Line Dance
TTITLE0=That's My Story
TTITLE1=The Party Ain't Over Yet
TTITLE2=Nobody Knows
TTITLE3=Write This Down
TTITLE4=Every Little Thing
TTITLE5=455 Rocket
TTITLE6=What's Your Poison
TTITLE7=My Kind Of woman - My Kind Of Man
TTITLE8=High On Love
TTITLE9=Just To See You Smile
TTITLE10=Seventeen
TTITLE11=When Love Starts Talking
TTITLE12=Seven Nights To Rock
TTITLE13=Meanwhile
TTITLE14=Believe Me Baby I Lied
TTITLE15=Live, Laugh, Love
TTITLE16=She Thinks My Tractor's Sexy
TTITLE17=Single White Female
TTITLE18=It's A Love Thing
TTITLE19=Bye Bye
EXTD=
EXTT0=
EXTT1=
EXTT2=
EXTT3=
EXTT4=
EXTT5=
EXTT6=
EXTT7=
EXTT8=
EXTT9=
EXTT10=
EXTT11=
EXTT12=
EXTT13=
EXTT14=
EXTT15=
EXTT16=
EXTT17=
EXTT18=
EXTT19=
PLAYORDER=
